<svg width="28" height="28" viewBox="0 0 28 28" fill="none" xmlns="http://www.w3.org/2000/svg">
<ellipse cx="14" cy="14" rx="14" ry="14" fill="#4954E6"/>
<path d="M10.8081 16.139H18.1918C18.3538 16.0417 18.5282 15.964 18.7129 15.9089V14.8427C18.7129 14.6708 18.6446 14.5059 18.5231 14.3844C18.4015 14.2628 18.2367 14.1945 18.0648 14.1945H10.9351C10.7632 14.1945 10.5984 14.2628 10.4768 14.3844C10.3553 14.5059 10.287 14.6708 10.287 14.8427V15.9089C10.4717 15.964 10.6464 16.0417 10.8081 16.139ZM8.9907 15.9089V14.8427C8.9907 14.327 9.19556 13.8324 9.56021 13.4677C9.92487 13.1031 10.4194 12.8982 10.9351 12.8982H13.8518V11.5203C13.2408 11.3625 12.7084 10.9873 12.3542 10.4651C12 9.9428 11.8485 9.3093 11.928 8.68331C12.0075 8.05732 12.3126 7.48182 12.7861 7.06468C13.2596 6.64754 13.8689 6.4174 14.5 6.4174C15.131 6.4174 15.7403 6.64754 16.2138 7.06468C16.6873 7.48182 16.9924 8.05732 17.0719 8.68331C17.1514 9.3093 16.9999 9.9428 16.6457 10.4651C16.2916 10.9873 15.7591 11.3625 15.1481 11.5203V12.8982H18.0648C18.5805 12.8982 19.075 13.1031 19.4397 13.4677C19.8044 13.8324 20.0092 14.327 20.0092 14.8427V15.9089C20.5079 16.0575 20.9403 16.3731 21.234 16.8027C21.5276 17.2323 21.6647 17.7498 21.6221 18.2684C21.5795 18.787 21.36 19.2753 21.0002 19.6512C20.6404 20.0272 20.1624 20.2681 19.6461 20.3334C19.1299 20.3988 18.6068 20.2847 18.1647 20.0102C17.7226 19.7358 17.3883 19.3177 17.2178 18.826C17.0474 18.3343 17.0511 17.799 17.2284 17.3098C17.4058 16.8206 17.7459 16.4072 18.1918 16.139H10.8081C11.254 16.4072 11.5941 16.8206 11.7715 17.3098C11.9488 17.799 11.9525 18.3343 11.7821 18.826C11.6116 19.3177 11.2773 19.7358 10.8352 20.0102C10.3931 20.2847 9.87005 20.3988 9.3538 20.3334C8.83755 20.2681 8.35947 20.0272 7.9997 19.6512C7.63994 19.2753 7.42037 18.787 7.37781 18.2684C7.33525 17.7498 7.47229 17.2323 7.76594 16.8027C8.05959 16.3731 8.49201 16.0575 8.9907 15.9089ZM14.5 10.3056C14.8438 10.3056 15.1735 10.1691 15.4166 9.92595C15.6597 9.68285 15.7963 9.35313 15.7963 9.00933C15.7963 8.66553 15.6597 8.33581 15.4166 8.09271C15.1735 7.84961 14.8438 7.71303 14.5 7.71303C14.1562 7.71303 13.8264 7.84961 13.5833 8.09271C13.3402 8.33581 13.2037 8.66553 13.2037 9.00933C13.2037 9.35313 13.3402 9.68285 13.5833 9.92595C13.8264 10.1691 14.1562 10.3056 14.5 10.3056ZM19.3611 19.0556C19.6189 19.0556 19.8662 18.9532 20.0485 18.7709C20.2309 18.5885 20.3333 18.3413 20.3333 18.0834C20.3333 17.8256 20.2309 17.5783 20.0485 17.3959C19.8662 17.2136 19.6189 17.1112 19.3611 17.1112C19.1032 17.1112 18.8559 17.2136 18.6736 17.3959C18.4913 17.5783 18.3888 17.8256 18.3888 18.0834C18.3888 18.3413 18.4913 18.5885 18.6736 18.7709C18.8559 18.9532 19.1032 19.0556 19.3611 19.0556ZM9.63885 19.0556C9.8967 19.0556 10.144 18.9532 10.3263 18.7709C10.5086 18.5885 10.6111 18.3413 10.6111 18.0834C10.6111 17.8256 10.5086 17.5783 10.3263 17.3959C10.144 17.2136 9.8967 17.1112 9.63885 17.1112C9.381 17.1112 9.13371 17.2136 8.95138 17.3959C8.76905 17.5783 8.66662 17.8256 8.66662 18.0834C8.66662 18.3413 8.76905 18.5885 8.95138 18.7709C9.13371 18.9532 9.381 19.0556 9.63885 19.0556Z" fill="white"/>
</svg>
